<?xml version="1.0" standalone="no"?><!DOCTYPE svg PUBLIC "-//W3C//DTD SVG 1.1//EN" "http://www.w3.org/Graphics/SVG/1.1/DTD/svg11.dtd"><svg  xmlns="http://www.w3.org/2000/svg" xmlns:xlink="http://www.w3.org/1999/xlink" version="1.1" width="600" height="371" aria-label="A chart." style="overflow: hidden;"><defs id="defs"><clipPath id="_ABSTRACT_RENDERER_ID_485"><rect x="115" y="71" width="371" height="229"></rect></clipPath></defs><rect x="0" y="0" width="600" height="371" stroke="none" stroke-width="0" fill="#ffffff"></rect><g><rect x="498" y="71" width="24" height="12" stroke="none" stroke-width="0" fill-opacity="0" fill="#ffffff"></rect><g><rect x="498" y="71" width="24" height="12" stroke="none" stroke-width="0" fill-opacity="0" fill="#ffffff"></rect><rect x="498" y="77" width="24" height="6" stroke="none" stroke-width="0" fill-opacity="0.3" fill="#3366cc"></rect><path d="M498,77L522,77" stroke="#3366cc" stroke-width="2" fill-opacity="1" fill="none"></path></g></g><g><rect x="115" y="71" width="371" height="229" stroke="none" stroke-width="0" fill-opacity="0" fill="#ffffff"></rect><g clip-path="url(https://docs.google.com/spreadsheets/d/11NPQIid7CWb7-1L7xGpM6tt0RFEnEBCldqfqpT1OpgM/edit#_ABSTRACT_RENDERER_ID_485)"><g><rect x="187" y="71" width="1" height="229" stroke="none" stroke-width="0" fill="#cccccc"></rect><rect x="260" y="71" width="1" height="229" stroke="none" stroke-width="0" fill="#cccccc"></rect><rect x="334" y="71" width="1" height="229" stroke="none" stroke-width="0" fill="#cccccc"></rect><rect x="407" y="71" width="1" height="229" stroke="none" stroke-width="0" fill="#cccccc"></rect><rect x="481" y="71" width="1" height="229" stroke="none" stroke-width="0" fill="#cccccc"></rect><rect x="115" y="299" width="371" height="1" stroke="none" stroke-width="0" fill="#cccccc"></rect><rect x="115" y="271" width="371" height="1" stroke="none" stroke-width="0" fill="#cccccc"></rect><rect x="115" y="242" width="371" height="1" stroke="none" stroke-width="0" fill="#cccccc"></rect><rect x="115" y="214" width="371" height="1" stroke="none" stroke-width="0" fill="#cccccc"></rect><rect x="115" y="186" width="371" height="1" stroke="none" stroke-width="0" fill="#cccccc"></rect><rect x="115" y="157" width="371" height="1" stroke="none" stroke-width="0" fill="#cccccc"></rect><rect x="115" y="129" width="371" height="1" stroke="none" stroke-width="0" fill="#cccccc"></rect><rect x="115" y="101" width="371" height="1" stroke="none" stroke-width="0" fill="#cccccc"></rect><rect x="115" y="72" width="371" height="1" stroke="none" stroke-width="0" fill="#cccccc"></rect></g><g><g><path d="M115.5,299.5L115.5,299.5L115.5,166.69410322212485L116.96825396825396,193.51490107478867L118.43650793650794,181.7870092191566L119.9047619047619,180.52093890003636L121.37301587301587,185.19100198160166L122.84126984126983,164.36961961071614L124.30952380952381,132.44531095626346L125.77777777777777,147.0652826287691L127.24603174603175,103.71133431160285L128.71428571428572,134.90800326383635L130.18253968253967,118.70899196502148L131.65079365079364,128.96026915331137L133.11904761904762,105.48288355580857L134.5873015873016,101.62327447949698L136.05555555555554,114.00205028341679L137.52380952380952,110.75222033356283L138.9920634920635,105.96275062775098L140.46031746031747,93.81392542669818L141.92857142857142,98.66280187068446L143.3968253968254,96.95521187077665L144.86507936507937,98.37430013782591L146.33333333333334,90.92248502929024L147.8015873015873,95.35198285226488L149.26984126984127,90.74975466678595L150.73809523809524,87.40521521363513L152.20634920634922,86.16423627186137L153.67460317460316,80.57521396103283L155.14285714285714,81.13558568686491L156.61111111111111,76.35463183770179L158.07936507936506,72.16087340158197L159.54761904761904,81.43046431794414L161.015873015873,78.94354563044135L162.484126984127,79.16142088219488L163.95238095238096,76.50130081896015L165.4206349206349,78.59874936599178L166.88888888888889,80.17386370470163L168.35714285714286,83.87885048670651L169.8253968253968,85.89050159744042L171.29365079365078,85.97116792013242L172.76190476190476,88.52185121986847L174.23015873015873,88.21531930053538L175.6984126984127,86.32642494324591L177.16666666666666,88.3264155797203L178.63492063492063,88.5333414553011L180.10317460317458,87.23947715676746L181.57142857142856,93.9192160633844L183.03968253968253,95.31126910423012L184.5079365079365,94.9218463320253L185.97619047619048,92.36135969353566L187.44444444444446,96.32411528312355L188.9126984126984,97.59813382739702L190.38095238095238,100.42379779638216L191.84920634920633,109.76177586549233L193.3174603174603,117.22937473993093L194.78571428571428,110.07016684941169L196.25396825396825,148.9438361912786L197.72222222222223,151.138510337281L199.1904761904762,150.15144005031536L200.65873015873015,150.29554041478497L202.12698412698413,154.62980783103458L203.59523809523807,165.1478852026301L205.06349206349205,165.23007678312115L206.53174603174602,141.58290808928288L208,168.80968060054957L209.46825396825398,179.9155575180817L210.93650793650792,184.53608383456623L212.4047619047619,148.5215605410856L213.87301587301585,168.66700230641442L215.34126984126982,176.58141896061935L216.8095238095238,195.10626948885186L218.27777777777777,196.98171163858885L219.74603174603175,197.6898285604345L221.21428571428572,200.21601705726857L222.68253968253967,197.4789219847484L224.15079365079364,198.87095519883678L225.6190476190476,202.2092096614271L227.08730158730157,201.0380774542391L228.55555555555554,198.8812903187714L230.02380952380952,199.78570049835557L231.4920634920635,211.11604269379706L232.96031746031747,201.82673334932178L234.42857142857142,212.95175329828527L235.8968253968254,212.71602193792552L237.36507936507934,215.88183525429014L238.83333333333331,214.82986851826018L240.3015873015873,215.13612121345838L241.76984126984127,197.9714474959166L243.23809523809524,213.6529222172812L244.7063492063492,229.46416516219574L246.17460317460316,235.0890696109169L247.64285714285714,222.9835402990371L249.11111111111111,266.1895891845099L250.57936507936506,270.00465438309624L252.04761904761904,275.56430395984466L253.515873015873,248.537311145911L254.984126984127,253.52474059494145L256.45238095238096,299.5L257.92063492063494,299.5L259.3888888888889,282.44786608412727L260.85714285714283,285.98650359303315L262.3253968253968,290.97393304206366L263.7936507936508,290.97393304206366L265.26190476190476,285.98650359303315L266.7301587301587,299.5L268.19841269841265,290.97393304206366L269.66666666666663,290.97393304206366L271.1349206349206,282.44786608412727L275.53968253968253,299.5L277.0079365079365,299.5L279.94444444444446,299.5L282.8809523809524,299.5L285.8174603174603,290.97393304206366L288.75396825396825,299.5L291.69047619047615,285.98650359303315L294.6269841269841,299.5L301.968253968254,299.5L313.71428571428567,282.44786608412727L315.18253968253964,299.5L341.6111111111111,299.5L351.88888888888886,299.5L354.8253968253968,299.5L370.9761904761905,299.5L400.3412698412698,299.5L442.9206349206349,299.5L478.1587301587301,299.5L485.5,290.97393304206366L485.5,299.5L485.5,299.5Z" stroke="none" stroke-width="0" fill-opacity="0.3" fill="#3366cc"></path></g></g><g><path d="M115.5,166.69410322212485L116.96825396825396,193.51490107478867L118.43650793650794,181.7870092191566L119.9047619047619,180.52093890003636L121.37301587301587,185.19100198160166L122.84126984126983,164.36961961071614L124.30952380952381,132.44531095626346L125.77777777777777,147.0652826287691L127.24603174603175,103.71133431160285L128.71428571428572,134.90800326383635L130.18253968253967,118.70899196502148L131.65079365079364,128.96026915331137L133.11904761904762,105.48288355580857L134.5873015873016,101.62327447949698L136.05555555555554,114.00205028341679L137.52380952380952,110.75222033356283L138.9920634920635,105.96275062775098L140.46031746031747,93.81392542669818L141.92857142857142,98.66280187068446L143.3968253968254,96.95521187077665L144.86507936507937,98.37430013782591L146.33333333333334,90.92248502929024L147.8015873015873,95.35198285226488L149.26984126984127,90.74975466678595L150.73809523809524,87.40521521363513L152.20634920634922,86.16423627186137L153.67460317460316,80.57521396103283L155.14285714285714,81.13558568686491L156.61111111111111,76.35463183770179L158.07936507936506,72.16087340158197L159.54761904761904,81.43046431794414L161.015873015873,78.94354563044135L162.484126984127,79.16142088219488L163.95238095238096,76.50130081896015L165.4206349206349,78.59874936599178L166.88888888888889,80.17386370470163L168.35714285714286,83.87885048670651L169.8253968253968,85.89050159744042L171.29365079365078,85.97116792013242L172.76190476190476,88.52185121986847L174.23015873015873,88.21531930053538L175.6984126984127,86.32642494324591L177.16666666666666,88.3264155797203L178.63492063492063,88.5333414553011L180.10317460317458,87.23947715676746L181.57142857142856,93.9192160633844L183.03968253968253,95.31126910423012L184.5079365079365,94.9218463320253L185.97619047619048,92.36135969353566L187.44444444444446,96.32411528312355L188.9126984126984,97.59813382739702L190.38095238095238,100.42379779638216L191.84920634920633,109.76177586549233L193.3174603174603,117.22937473993093L194.78571428571428,110.07016684941169L196.25396825396825,148.9438361912786L197.72222222222223,151.138510337281L199.1904761904762,150.15144005031536L200.65873015873015,150.29554041478497L202.12698412698413,154.62980783103458L203.59523809523807,165.1478852026301L205.06349206349205,165.23007678312115L206.53174603174602,141.58290808928288L208,168.80968060054957L209.46825396825398,179.9155575180817L210.93650793650792,184.53608383456623L212.4047619047619,148.5215605410856L213.87301587301585,168.66700230641442L215.34126984126982,176.58141896061935L216.8095238095238,195.10626948885186L218.27777777777777,196.98171163858885L219.74603174603175,197.6898285604345L221.21428571428572,200.21601705726857L222.68253968253967,197.4789219847484L224.15079365079364,198.87095519883678L225.6190476190476,202.2092096614271L227.08730158730157,201.0380774542391L228.55555555555554,198.8812903187714L230.02380952380952,199.78570049835557L231.4920634920635,211.11604269379706L232.96031746031747,201.82673334932178L234.42857142857142,212.95175329828527L235.8968253968254,212.71602193792552L237.36507936507934,215.88183525429014L238.83333333333331,214.82986851826018L240.3015873015873,215.13612121345838L241.76984126984127,197.9714474959166L243.23809523809524,213.6529222172812L244.7063492063492,229.46416516219574L246.17460317460316,235.0890696109169L247.64285714285714,222.9835402990371L249.11111111111111,266.1895891845099L250.57936507936506,270.00465438309624L252.04761904761904,275.56430395984466L253.515873015873,248.537311145911L254.984126984127,253.52474059494145L256.45238095238096,299.5L257.92063492063494,299.5L259.3888888888889,282.44786608412727L260.85714285714283,285.98650359303315L262.3253968253968,290.97393304206366L263.7936507936508,290.97393304206366L265.26190476190476,285.98650359303315L266.7301587301587,299.5L268.19841269841265,290.97393304206366L269.66666666666663,290.97393304206366L271.1349206349206,282.44786608412727L275.53968253968253,299.5L277.0079365079365,299.5L279.94444444444446,299.5L282.8809523809524,299.5L285.8174603174603,290.97393304206366L288.75396825396825,299.5L291.69047619047615,285.98650359303315L294.6269841269841,299.5L301.968253968254,299.5L313.71428571428567,282.44786608412727L315.18253968253964,299.5L341.6111111111111,299.5L351.88888888888886,299.5L354.8253968253968,299.5L370.9761904761905,299.5L400.3412698412698,299.5L442.9206349206349,299.5L478.1587301587301,299.5L485.5,290.97393304206366" stroke="#3366cc" stroke-width="2" fill-opacity="1" fill="none"></path></g></g><g></g><g><g><text text-anchor="middle" x="187.44444444444446" y="317.2" font-family="Arial" font-size="12" stroke="none" stroke-width="0" fill="#444444">50</text></g><g><text text-anchor="middle" x="260.85714285714283" y="317.2" font-family="Arial" font-size="12" stroke="none" stroke-width="0" fill="#444444">100</text></g><g><text text-anchor="middle" x="334.26984126984127" y="317.2" font-family="Arial" font-size="12" stroke="none" stroke-width="0" fill="#444444">150</text></g><g><text text-anchor="middle" x="407.68253968253964" y="317.2" font-family="Arial" font-size="12" stroke="none" stroke-width="0" fill="#444444">200</text></g><g><text text-anchor="middle" x="481.0952380952381" y="317.2" font-family="Arial" font-size="12" stroke="none" stroke-width="0" fill="#444444">250</text></g><g><text text-anchor="end" x="103" y="303.7" font-family="Arial" font-size="12" stroke="none" stroke-width="0" fill="#444444">1</text></g><g><text text-anchor="end" x="103" y="275.3770186335404" font-family="Arial" font-size="12" stroke="none" stroke-width="0" fill="#444444">10</text></g><g><text text-anchor="end" x="103" y="247.05403726708073" font-family="Arial" font-size="12" stroke="none" stroke-width="0" fill="#444444">100</text></g><g><text text-anchor="end" x="103" y="218.73105590062113" font-family="Arial" font-size="12" stroke="none" stroke-width="0" fill="#444444">1000</text></g><g><text text-anchor="end" x="103" y="190.40807453416147" font-family="Arial" font-size="12" stroke="none" stroke-width="0" fill="#444444">10000</text></g><g><text text-anchor="end" x="103" y="162.08509316770187" font-family="Arial" font-size="12" stroke="none" stroke-width="0" fill="#444444">100000</text></g><g><text text-anchor="end" x="103" y="133.76211180124227" font-family="Arial" font-size="12" stroke="none" stroke-width="0" fill="#444444">1000000</text></g><g><text text-anchor="end" x="103" y="105.43913043478263" font-family="Arial" font-size="12" stroke="none" stroke-width="0" fill="#444444">10000000</text></g><g><text text-anchor="end" x="103" y="77.116149068323" font-family="Arial" font-size="12" stroke="none" stroke-width="0" fill="#444444">100000000</text></g></g></g><g></g></svg>
