<?xml version="1.0" standalone="no"?><!DOCTYPE svg PUBLIC "-//W3C//DTD SVG 1.1//EN" "http://www.w3.org/Graphics/SVG/1.1/DTD/svg11.dtd"><svg xmlns:xlink="http://www.w3.org/1999/xlink" version="1.1" class="highcharts-root" style="font-family:'lucida grande', 'lucida sans unicode', arial, helvetica, sans-serif;font-size:12px;" xmlns="http://www.w3.org/2000/svg" width="600" viewBox="0 0 600 400" height="400"><desc>Created with Highcharts 5.0.0</desc><defs><clipPath id="highcharts-5"><rect x="0" y="0" width="513" height="266" fill="none"></rect></clipPath></defs><rect fill="#ffffff" class="highcharts-background" x="0" y="0" width="600" height="400" rx="0" ry="0"></rect><rect fill="none" class="highcharts-plot-background" x="77" y="46" width="513" height="266"></rect><g class="highcharts-grid highcharts-xaxis-grid "><path fill="none" class="highcharts-grid-line" d="M 162.5 46 L 162.5 312" opacity="1"></path><path fill="none" class="highcharts-grid-line" d="M 247.5 46 L 247.5 312" opacity="1"></path><path fill="none" class="highcharts-grid-line" d="M 333.5 46 L 333.5 312" opacity="1"></path><path fill="none" class="highcharts-grid-line" d="M 418.5 46 L 418.5 312" opacity="1"></path><path fill="none" class="highcharts-grid-line" d="M 504.5 46 L 504.5 312" opacity="1"></path><path fill="none" class="highcharts-grid-line" d="M 589.5 46 L 589.5 312" opacity="1"></path><path fill="none" class="highcharts-grid-line" d="M 76.5 46 L 76.5 312" opacity="1"></path></g><g class="highcharts-grid highcharts-yaxis-grid "><path fill="none" stroke="#e6e6e6" stroke-width="1" class="highcharts-grid-line" d="M 77 312.5 L 590 312.5" opacity="1"></path><path fill="none" stroke="#e6e6e6" stroke-width="1" class="highcharts-grid-line" d="M 77 268.5 L 590 268.5" opacity="1"></path><path fill="none" stroke="#e6e6e6" stroke-width="1" class="highcharts-grid-line" d="M 77 223.5 L 590 223.5" opacity="1"></path><path fill="none" stroke="#e6e6e6" stroke-width="1" class="highcharts-grid-line" d="M 77 179.5 L 590 179.5" opacity="1"></path><path fill="none" stroke="#e6e6e6" stroke-width="1" class="highcharts-grid-line" d="M 77 135.5 L 590 135.5" opacity="1"></path><path fill="none" stroke="#e6e6e6" stroke-width="1" class="highcharts-grid-line" d="M 77 90.5 L 590 90.5" opacity="1"></path><path fill="none" stroke="#e6e6e6" stroke-width="1" class="highcharts-grid-line" d="M 77 45.5 L 590 45.5" opacity="1"></path></g><rect fill="none" class="highcharts-plot-border" x="77" y="46" width="513" height="266"></rect><g class="highcharts-axis highcharts-xaxis "><path fill="none" class="highcharts-tick" stroke="#ccd6eb" stroke-width="1" d="M 162.5 312 L 162.5 322" opacity="1"></path><path fill="none" class="highcharts-tick" stroke="#ccd6eb" stroke-width="1" d="M 247.5 312 L 247.5 322" opacity="1"></path><path fill="none" class="highcharts-tick" stroke="#ccd6eb" stroke-width="1" d="M 333.5 312 L 333.5 322" opacity="1"></path><path fill="none" class="highcharts-tick" stroke="#ccd6eb" stroke-width="1" d="M 418.5 312 L 418.5 322" opacity="1"></path><path fill="none" class="highcharts-tick" stroke="#ccd6eb" stroke-width="1" d="M 504.5 312 L 504.5 322" opacity="1"></path><path fill="none" class="highcharts-tick" stroke="#ccd6eb" stroke-width="1" d="M 590.5 312 L 590.5 322" opacity="1"></path><path fill="none" class="highcharts-tick" stroke="#ccd6eb" stroke-width="1" d="M 76.5 312 L 76.5 322" opacity="1"></path><path fill="none" class="highcharts-axis-line" stroke="#ccd6eb" stroke-width="1" d="M 77 312.5 L 590 312.5"></path></g><g class="highcharts-axis highcharts-yaxis "><text x="24.71875" text-anchor="middle" transform="translate(0,0) rotate(270 24.71875 179)" class="highcharts-axis-title" style="color:#666666;fill:#666666;" y="179">IOPS</text><path fill="none" class="highcharts-axis-line" d="M 77 46 L 77 312"></path></g><g class="highcharts-series-group"><g class="highcharts-series highcharts-series-0 highcharts-column-series highcharts-color-0 " transform="translate(77,46) scale(1 1)" width="266" height="513" clip-path="url(#highcharts-5)"><rect x="19.5" y="265.5" width="21" height="1" fill="#7cb5ec" class="highcharts-point highcharts-color-0" stroke="#ffffff" stroke-width="1"></rect><rect x="104.5" y="228.5" width="21" height="38" fill="#7cb5ec" class="highcharts-point highcharts-color-0" stroke="#ffffff" stroke-width="1"></rect><rect x="190.5" y="219.5" width="21" height="47" fill="#7cb5ec" class="highcharts-point highcharts-color-0" stroke="#ffffff" stroke-width="1"></rect><rect x="275.5" y="203.5" width="21" height="63" fill="#7cb5ec" class="highcharts-point highcharts-color-0" stroke="#ffffff" stroke-width="1"></rect><rect x="361.5" y="161.5" width="21" height="105" fill="#7cb5ec" class="highcharts-point highcharts-color-0" stroke="#ffffff" stroke-width="1"></rect><rect x="446.5" y="40.5" width="21" height="226" fill="#7cb5ec" class="highcharts-point highcharts-color-0" stroke="#ffffff" stroke-width="1"></rect></g><g class="highcharts-markers highcharts-series-0 highcharts-column-series highcharts-color-0 " transform="translate(77,46) scale(1 1)" width="266" height="513" clip-path="none"></g><g class="highcharts-series highcharts-series-1 highcharts-column-series highcharts-color-1 " transform="translate(77,46) scale(1 1)" width="266" height="513" clip-path="url(#highcharts-5)"><rect x="44.5" y="266.5" width="21" height="0" fill="#434348" class="highcharts-point highcharts-color-1" stroke="#ffffff" stroke-width="1"></rect><rect x="130.5" y="253.5" width="21" height="13" fill="#434348" class="highcharts-point highcharts-color-1" stroke="#ffffff" stroke-width="1"></rect><rect x="215.5" y="250.5" width="21" height="16" fill="#434348" class="highcharts-point highcharts-color-1" stroke="#ffffff" stroke-width="1"></rect><rect x="301.5" y="245.5" width="21" height="21" fill="#434348" class="highcharts-point highcharts-color-1" stroke="#ffffff" stroke-width="1"></rect><rect x="386.5" y="231.5" width="21" height="35" fill="#434348" class="highcharts-point highcharts-color-1" stroke="#ffffff" stroke-width="1"></rect><rect x="472.5" y="191.5" width="21" height="75" fill="#434348" class="highcharts-point highcharts-color-1" stroke="#ffffff" stroke-width="1"></rect></g><g class="highcharts-markers highcharts-series-1 highcharts-column-series highcharts-color-1 " transform="translate(77,46) scale(1 1)" width="266" height="513" clip-path="none"></g></g><text x="300" text-anchor="middle" class="highcharts-title" style="color:#333333;font-size:18px;fill:#333333;width:536px;" y="24"><tspan>IOPS comparison, linear scale</tspan></text><g class="highcharts-legend" transform="translate(230,359)"><rect fill="none" class="highcharts-legend-box" rx="0" ry="0" x="0" y="0" width="140" height="26" visibility="visible"></rect><g><g><g class="highcharts-legend-item highcharts-column-series highcharts-color-0 highcharts-series-0" transform="translate(8,3)"><text x="21" style="color:#333333;font-size:12px;font-weight:bold;cursor:pointer;fill:#333333;" text-anchor="start" y="15">Read</text><rect x="2" y="4" width="12" height="12" fill="#7cb5ec" rx="6" ry="6" class="highcharts-point"></rect></g><g class="highcharts-legend-item highcharts-column-series highcharts-color-1 highcharts-series-1" transform="translate(79.3125,3)"><text x="21" y="15" style="color:#333333;font-size:12px;font-weight:bold;cursor:pointer;fill:#333333;" text-anchor="start">Write</text><rect x="2" y="4" width="12" height="12" fill="#434348" rx="6" ry="6" class="highcharts-point"></rect></g></g></g></g><g class="highcharts-axis-labels highcharts-xaxis-labels "><text x="119.75" style="color:#666666;cursor:default;font-size:11px;fill:#666666;width:76px;text-overflow:clip;" text-anchor="middle" transform="translate(0,0)" y="331" opacity="1"><tspan>Spinning disk</tspan></text><text x="205.25" style="color:#666666;cursor:default;font-size:11px;fill:#666666;width:76px;text-overflow:clip;" text-anchor="middle" transform="translate(0,0)" y="331" opacity="1"><tspan>Dedicated</tspan><tspan dy="14" x="205.25">server SSD</tspan><title>Dedicated server SSD</title></text><text x="290.75" style="color:#666666;cursor:default;font-size:11px;fill:#666666;width:76px;text-overflow:clip;" text-anchor="middle" transform="translate(0,0)" y="331" opacity="1"><tspan>Cloud server</tspan><tspan dy="14" x="290.75">1</tspan><title>Cloud server 1</title></text><text x="376.25" style="color:#666666;cursor:default;font-size:11px;fill:#666666;width:76px;text-overflow:clip;" text-anchor="middle" transform="translate(0,0)" y="331" opacity="1"><tspan>Cloud server</tspan><tspan dy="14" x="376.25">2</tspan><title>Cloud server 2</title></text><text x="461.75" style="color:#666666;cursor:default;font-size:11px;fill:#666666;width:76px;text-overflow:clip;" text-anchor="middle" transform="translate(0,0)" y="331" opacity="1"><tspan>SATA SSD</tspan></text><text x="547.25" style="color:#666666;cursor:default;font-size:11px;fill:#666666;width:76px;text-overflow:clip;" text-anchor="middle" transform="translate(0,0)" y="331" opacity="1"><tspan>NVMe SSD</tspan></text></g><g class="highcharts-axis-labels highcharts-yaxis-labels "><text x="62" style="color:#666666;cursor:default;font-size:11px;fill:#666666;width:188px;text-overflow:clip;" text-anchor="end" transform="translate(0,0)" y="317" opacity="1"><tspan>0</tspan></text><text x="62" style="color:#666666;cursor:default;font-size:11px;fill:#666666;width:188px;text-overflow:clip;" text-anchor="end" transform="translate(0,0)" y="272" opacity="1"><tspan>25k</tspan></text><text x="62" style="color:#666666;cursor:default;font-size:11px;fill:#666666;width:188px;text-overflow:clip;" text-anchor="end" transform="translate(0,0)" y="228" opacity="1"><tspan>50k</tspan></text><text x="62" style="color:#666666;cursor:default;font-size:11px;fill:#666666;width:188px;text-overflow:clip;" text-anchor="end" transform="translate(0,0)" y="184" opacity="1"><tspan>75k</tspan></text><text x="62" style="color:#666666;cursor:default;font-size:11px;fill:#666666;width:188px;text-overflow:clip;" text-anchor="end" transform="translate(0,0)" y="139" opacity="1"><tspan>100k</tspan></text><text x="62" style="color:#666666;cursor:default;font-size:11px;fill:#666666;width:188px;text-overflow:clip;" text-anchor="end" transform="translate(0,0)" y="95" opacity="1"><tspan>125k</tspan></text><text x="62" style="color:#666666;cursor:default;font-size:11px;fill:#666666;width:188px;text-overflow:clip;" text-anchor="end" transform="translate(0,0)" y="51" opacity="1"><tspan>150k</tspan></text></g><g class="highcharts-label highcharts-tooltip" display="none" style="cursor:default;pointer-events:none;white-space:nowrap;" transform="translate(0,0)"><path fill="none" class="highcharts-label-box highcharts-tooltip-box" d="M 3.5 0.5 L 13.5 0.5 C 16.5 0.5 16.5 0.5 16.5 3.5 L 16.5 13.5 C 16.5 16.5 16.5 16.5 13.5 16.5 L 3.5 16.5 C 0.5 16.5 0.5 16.5 0.5 13.5 L 0.5 3.5 C 0.5 0.5 0.5 0.5 3.5 0.5"  stroke="#000000" stroke-opacity="0.049999999999999996" stroke-width="5" transform="translate(1, 1)"></path><path fill="none" class="highcharts-label-box highcharts-tooltip-box" d="M 3.5 0.5 L 13.5 0.5 C 16.5 0.5 16.5 0.5 16.5 3.5 L 16.5 13.5 C 16.5 16.5 16.5 16.5 13.5 16.5 L 3.5 16.5 C 0.5 16.5 0.5 16.5 0.5 13.5 L 0.5 3.5 C 0.5 0.5 0.5 0.5 3.5 0.5"  stroke="#000000" stroke-opacity="0.09999999999999999" stroke-width="3" transform="translate(1, 1)"></path><path fill="none" class="highcharts-label-box highcharts-tooltip-box" d="M 3.5 0.5 L 13.5 0.5 C 16.5 0.5 16.5 0.5 16.5 3.5 L 16.5 13.5 C 16.5 16.5 16.5 16.5 13.5 16.5 L 3.5 16.5 C 0.5 16.5 0.5 16.5 0.5 13.5 L 0.5 3.5 C 0.5 0.5 0.5 0.5 3.5 0.5"  stroke="#000000" stroke-opacity="0.15" stroke-width="1" transform="translate(1, 1)"></path><path fill="rgb(247,247,247)" fill-opacity="0.85" class="highcharts-label-box highcharts-tooltip-box" d="M 3.5 0.5 L 13.5 0.5 C 16.5 0.5 16.5 0.5 16.5 3.5 L 16.5 13.5 C 16.5 16.5 16.5 16.5 13.5 16.5 L 3.5 16.5 C 0.5 16.5 0.5 16.5 0.5 13.5 L 0.5 3.5 C 0.5 0.5 0.5 0.5 3.5 0.5"></path><text x="8" style="font-size:12px;color:#333333;fill:#333333;" y="20"></text></g><text x="590" class="highcharts-credits" text-anchor="end" style="cursor:pointer;color:#999999;font-size:9px;fill:#999999;" y="395">Highcharts.com</text></svg>